<?xml version="1.0" standalone="no"?>
<!DOCTYPE svg PUBLIC "-//W3C//DTD SVG 20010904//EN"
 "http://www.w3.org/TR/2001/REC-SVG-20010904/DTD/svg10.dtd">
<svg version="1.0" xmlns="http://www.w3.org/2000/svg"
 width="1024.000000pt" height="1024.000000pt" viewBox="0 0 1024.000000 1024.000000"
 preserveAspectRatio="xMidYMid meet">
<metadata>
Created by potrace 1.14, written by Peter Selinger 2001-2017
</metadata>
<g transform="translate(0.000000,1024.000000) scale(0.100000,-0.100000)"
fill="#000000" stroke="none">
<path d="M8023 8069 c-65 -12 -79 -22 -223 -164 l-135 -133 -320 -21 c-271
-18 -688 -43 -1085 -66 -199 -12 -220 -21 -220 -98 0 -68 -31 -51 445 -247
415 -172 506 -209 520 -218 13 -7 1 -31 -68 -138 -101 -158 -263 -404 -327
-499 -53 -79 -90 -147 -90 -168 0 -23 35 -47 67 -47 36 0 79 28 283 185 80 61
170 129 200 150 30 22 96 72 146 112 51 40 94 73 97 73 10 0 144 -389 256
-747 57 -179 83 -223 132 -223 17 0 43 7 59 15 51 27 61 62 76 265 7 102 24
300 38 440 14 140 34 404 46 585 14 222 26 337 34 350 8 11 67 78 133 148 108
114 122 133 142 192 25 78 26 103 6 152 -36 86 -112 122 -212 102z"/>
<path d="M5975 6971 c-43 -11 -71 -27 -94 -57 -21 -26 -21 -33 -21 -716 0
-737 -1 -728 50 -773 22 -19 38 -20 652 -23 564 -2 633 -1 655 14 52 34 53 41
53 623 l0 540 -21 6 c-25 8 -38 0 -387 -259 l-243 -181 7 -196 c7 -213 5 -228
-46 -254 -69 -36 -103 -7 -161 133 -23 57 -48 106 -55 109 -6 2 -32 -11 -57
-30 -76 -58 -121 -57 -152 3 -17 34 -12 51 44 147 l31 52 -110 57 c-60 31
-118 65 -129 76 -27 24 -27 78 -2 109 19 24 21 24 173 20 279 -8 247 -14 288
46 19 29 67 102 105 163 75 119 127 198 189 284 49 69 46 100 -11 110 -52 8
-721 6 -758 -3z"/>
<path d="M3032 6953 c-19 -9 -41 -32 -53 -54 -18 -37 -19 -67 -19 -995 0
-1059 -3 -1004 64 -1045 29 -18 60 -19 538 -19 278 0 513 3 522 6 38 14 14 55
-150 261 -92 114 -173 223 -181 242 -18 42 -11 72 26 114 25 27 36 32 74 32
31 0 52 -6 67 -20 19 -17 389 -476 483 -598 l28 -37 724 0 c573 0 725 3 725
13 0 6 -40 59 -88 117 -111 132 -397 490 -807 1009 -836 1057 -754 956 -802
977 -26 11 -136 14 -575 14 -481 0 -547 -2 -576 -17z"/>
<path d="M6006 5155 c-13 -10 -17 -21 -13 -37 4 -13 117 -161 252 -329 205
-256 245 -311 245 -338 0 -39 -22 -85 -52 -105 -25 -18 -90 -21 -118 -6 -10 5
-54 56 -98 112 -44 57 -89 113 -101 126 l-22 22 -729 0 c-401 0 -731 -3 -733
-7 -3 -5 64 -96 149 -203 85 -107 174 -220 197 -250 316 -403 443 -565 663
-845 143 -181 288 -367 323 -412 35 -46 80 -93 100 -105 l36 -23 540 0 c602 0
575 -3 609 68 15 32 16 134 16 1144 0 1094 0 1108 -20 1141 -38 63 -31 62
-657 62 -474 -1 -571 -3 -587 -15z"/>
<path d="M3045 4590 c-27 -11 -61 -49 -74 -83 -8 -19 -11 -286 -11 -830 0
-765 1 -804 19 -844 38 -82 1 -78 652 -78 565 0 578 0 605 20 15 11 35 36 45
55 18 33 19 76 19 851 l0 816 -23 34 c-47 71 -28 69 -652 68 -308 0 -569 -4
-580 -9z"/>
</g>
</svg>
